# xmcd CD database file
# Generated: Sat Mar 15 17:53:40 2008 by KSCD
# 
# Track frame offsets:
#       150
#       11724
#       22848
#       35783
#       49213
#       64741
#       79970
#       91456
#       102491
#       115474
#       126683
#       137996
#       150488
#       162761
#       170771
#       184429
#       196334
#       211913
#
# Disc length: 3019 seconds
#
# Revision: 4
# Processed by: cddbd v1.5.2PL0 Copyright (c) Steve Scherf et al.
# Submitted via: Kscd 1.3.3
#
DISCID=0b0bc912
DTITLE=Various Artist - Country Hits - Sound 1 of 4
DYEAR=1900
DGENRE=Country
TTITLE0=Patsy Cline - Walking After Midnight
TTITLE1=Roger Miller - King of the Road
TTITLE2=Merle haggard - The Fightin Side Of me
TTITLE3=Lee Greenwood - Hearts Aren't Made To Break
TTITLE4=Conway Twitty - Touch The Hand
TTITLE5=Ed Bruce - Mamas Don't Let Your Babies Grow Up To Be Cowboys
TTITLE6=The Kendalls - Heaven's Just A sin Away
TTITLE7=Bill Anderson - Wild Weekend
TTITLE8=George Morgan - I'm Completely Satisfied with You
TTITLE9=Conway Twitty - Hello Darlin
TTITLE10=Patsy Cline - Hungry For Love
TTITLE11=Wynne Stewart - Wishful Thinking
TTITLE12=Merle Haggard - Okie From Muskogee
TTITLE13=Roger Miller - Dang Me
TTITLE14=Mel Mc Daniel - Baby's Got Her Bluejeans On
TTITLE15=The kendalls - Sweet Desire
TTITLE16=Holly Dunn - Daddy's Hands
TTITLE17=Lee Greenwood - God Bless the USA
EXTD=
EXTT0=
EXTT1=
EXTT2=
EXTT3=
EXTT4=
EXTT5=
EXTT6=
EXTT7=
EXTT8=
EXTT9=
EXTT10=
EXTT11=
EXTT12=
EXTT13=
EXTT14=
EXTT15=
EXTT16=
EXTT17=
PLAYORDER=
